# AST/ASF file generated using VICON BodyLanguage
# -----------------------------------------------
:version 1.10
:name VICON
:units
  mass 1.0
  length 0.45
  angle deg
:documentation
   .ast/.asf automatically generated from VICON data using
   VICON BodyBuilder and BodyLanguage model FoxedUp or BRILLIANT.MOD
:root
   order TX TY TZ RX RY RZ
   axis XYZ
   position 0 0 0  
   orientation 0 0 0 
:bonedata
  begin
     id 1 
     name lhipjoint
     direction 0.612567 -0.751349 0.245431 
     length 2.42285 
     axis 0 0 0  XYZ
  end
  begin
     id 2 
     name lfemur
     direction 0.34202 -0.939693 0  
     length 7.11304  
     axis 0 0 20  XYZ
    dof rx ry rz
    limits (-160.0 20.0)
           (-70.0 70.0)
           (-60.0 70.0)
  end
  begin
     id 3 
     name ltibia
     direction 0.34202 -0.939693 0   
     length 7.84529   
     axis 0 0 20   XYZ
    dof rx
    limits (-10.0 170.0)
  end
  begin
     id 4 
     name lfoot
     direction 0.0779239 -0.214094 0.9737   
     length 1.97176   
     axis -90 7.62852e-016 20   XYZ
    dof rx rz
    limits (-45.0 90.0)
           (-70.0 20.0)
  end
  begin
     id 5 
     name ltoes
     direction 1.53565e-011 -4.21709e-011 1   
     length 0.993197   
     axis -90 7.62852e-016 20   XYZ
    dof rx
    limits (-90.0 20.0)
  end
  begin
     id 6 
     name rhipjoint
     direction -0.665722 -0.709315 0.231701   
     length 2.56642  
     axis 0 0 0  XYZ 
  end
  begin
     id 7 
     name rfemur
     direction -0.34202 -0.939693 0   
     length 7.32108   
     axis 0 0 -20   XYZ
    dof rx ry rz
    limits (-160.0 20.0)
           (-70.0 70.0)
           (-70.0 60.0)
  end
  begin
     id 8 
     name rtibia
     direction -0.34202 -0.939693 0   
     length 7.81254   
     axis 0 0 -20   XYZ
    dof rx
    limits (-10.0 170.0)
 end
 begin
     id 9 
     name rfoot
     direction -0.0832806 -0.228812 0.969902   
     length 2.08278  
     axis -90 -7.62852e-016 -20   XYZ
    dof rx rz
    limits (-45.0 90.0)
           (-20.0 70.0)
  end
  begin
     id 10 
     name rtoes
     direction -1.53589e-011 -4.22086e-011 1   
     length 1.04609   
     axis -90 -7.62852e-016 -20   XYZ
    dof rx
    limits (-90.0 20.0)
  end
  begin
     id 11 
     name lowerback
     direction -0.00506013 0.988403 -0.151766   
     length 2.01978   
     axis 0 0 0   XYZ
    dof rx ry rz
    limits (-20.0 45.0)
           (-30.0 30.0)
           (-30.0 30.0)
  end
  begin
     id 12 
     name upperback
     direction -0.00836389 0.99968 0.0238859   
     length 2.01276   
     axis 0 0 0   XYZ
    dof rx ry rz
    limits (-20.0 45.0)
           (-30.0 30.0)
           (-30.0 30.0)
  end
  begin
     id 13 
     name thorax
     direction -0.00684136 0.995386 0.0957043   
     length 2.07303   
     axis 0 0 0   XYZ
    dof rx ry rz
    limits (-20.0 45.0)
           (-30.0 30.0)
           (-30.0 30.0)
  end
  begin
     id 14 
     name lowerneck
     direction -0.0161045 0.999661 0.0204485   
     length 1.91243   
     axis 0 0 0   XYZ
    dof rx ry rz
    limits (-20.0 45.0)
           (-30.0 30.0)
           (-30.0 30.0)
  end
  begin
     id 15 
     name upperneck
     direction 0.0553583 0.990946 -0.122319   
     length 1.91574   
     axis 0 0 0   XYZ
    dof rx ry rz
    limits (-20.0 45.0)
           (-30.0 30.0)
           (-30.0 30.0)
  end
  begin
     id 16
     name head
     direction 0.0180273 0.998839 -0.0446756  
     length 1.92693  
     axis 0 0 0   XYZ
    dof rx ry rz
    limits (-20.0 45.0)
           (-30.0 30.0)
           (-30.0 30.0)
  end
  begin
     id 17 
     name lclavicle
     direction 0.945646 0.319323 -0.0615358  
     length 4.0076  
     axis 0 0 0   XYZ
    dof ry rz
    limits (-20.0 10.0)
           (0.0 20.0)
  end
  begin
     id 18 
     name lhumerus
     direction 1 -4.48967e-011 -2.79996e-027   
     length 5.64147   
     axis 180 -30 -90   XYZ
    dof rx ry rz
    limits (-60.0 90.0)
           (-90.0 90.0)
           (-90.0 90.0)
  end
  begin
     id 19
     name lradius
     direction 1 -4.48976e-011 -9.5122e-027   
     length 2.86444   
     axis 180 -30 -90   XYZ
    dof rx
    limits (-10.0 170.0)
  end
  begin
     id 20
     name lwrist
     direction 1 -4.48983e-011 -1.24047e-026   
     length 1.43222   
     axis 9.05591e-015 90 90   XYZ
    dof ry
    limits (-180.0 0.0)
 end
  begin
     id 21 
     name lhand
     direction 1 -4.4892e-011 -2.48094e-026   
     length 0.722123   
     axis 1.58305e-014 90 90   XYZ
    dof rx rz
    limits (-90.0 90.0)
           (-45.0 45.0)
  end
  begin
     id 22 
     name lfingers
     direction 1 -4.48895e-011 -4.96187e-026   
     length 0.582194   
     axis 3.1661e-014 90 90   XYZ
    dof rx
    limits (0.0 90.0)
  end
  begin
     id 23
     name lthumb
     direction 0.707107 -6.34961e-011 0.707107   
     length 0.835918   
     axis -90 45 2.85299e-015   XYZ
    dof rx rz
    limits (-45.0 45.0)
           (-45.0 45.0)
  end
  begin
     id 24 
     name rclavicle
     direction -0.932635 0.324218 -0.15835   
     length 3.65819  
     axis 0 0 0   XYZ 
    dof ry rz
    limits (-10.0 20.0)
           (-20.0 0.0)
  end
  begin
     id 25 
     name rhumerus
     direction -1 -4.48965e-011 -4.02296e-027  
     length 5.44729   
     axis 180 30 90   XYZ
    dof rx ry rz
    limits (-90.0 60.0)
           (-90.0 90.0)
           (-90.0 90.0)
  end
  begin
     id 26 
     name rradius
     direction -1 -4.48957e-011 -8.81087e-027   
     length 3.08821   
     axis 180 30 90   XYZ
    dof rx
    limits (-10.0 170.0)
  end
  begin
     id 27 
     name rwrist
     direction -1 -4.49015e-011 -1.24047e-026   
     length 1.5441   
     axis 9.05591e-015 -90 -90   XYZ
    dof ry
    limits (-180.0 0.0)
  end
  begin
     id 28
     name rhand
     direction -1 -4.4891e-011 -2.48094e-026   
     length 0.821049   
     axis 1.58305e-014 -90 -90   XYZ
    dof rx rz
    limits (-90.0 90.0)
           (-45.0 45.0)
  end
  begin
     id 29
     name rfingers
     direction -1 -4.48985e-011 -4.96187e-026   
     length 0.661951   
     axis 3.1661e-014 -90 -90   XYZ
    dof rx
    limits (0.0 90.0)
  end
  begin
     id 30
     name rthumb
     direction -0.707107 -6.34906e-011 0.707107   
     length 0.950433   
     axis -90 -45 -2.85299e-015   XYZ
    dof rx rz
    limits (-45.0 45.0)
           (-45.0 45.0)
  end
:hierarchy
  begin
    root lhipjoint rhipjoint lowerback
    lhipjoint lfemur
    lfemur ltibia
    ltibia lfoot
    lfoot ltoes
    rhipjoint rfemur
    rfemur rtibia
    rtibia rfoot
    rfoot rtoes
    lowerback upperback
    upperback thorax
    thorax lowerneck lclavicle rclavicle
    lowerneck upperneck
    upperneck head
    lclavicle lhumerus
    lhumerus lradius
    lradius lwrist
    lwrist lhand lthumb
    lhand lfingers
    rclavicle rhumerus
    rhumerus rradius
    rradius rwrist
    rwrist rhand rthumb
    rhand rfingers
  end

#!OML:ASF F:\VICON\USERDATA\INSTALL\rory3\rory3.ASF
:FULLY-SPECIFIED
:DEGREES
937
root 1.33705 17.5508 -4.78076 -179.67 -31.0838 -178.203
lowerback -2.97019 1.65997 2.37697
upperback 2.38799 2.13749 -1.729
thorax 4.28733 1.14907 -2.9781
lowerneck -4.04021 -3.85553 -3.96488
upperneck 15.5859 -6.26443 5.55781
head 5.65474 -3.1264 1.9858
rclavicle -5.08889e-014 -1.59028e-014
rhumerus -29.9051 4.72253 -92.2648
rradius 33.9558
rwrist 13.3511
rhand -7.05767 8.80218
rfingers 7.12502
rthumb 18.8154 -20.3078
lclavicle -5.08889e-014 -1.59028e-014
lhumerus -40.2325 4.11327 83.7414
lradius 19.8927
lwrist 26.0097
lhand -11.6062 10.8939
lfingers 7.12502
lthumb 14.4365 40.3718
rfemur 11.9743 -1.65744 25.6024
rtibia 26.331
rfoot -4.07122 -0.984271
rtoes -5.10197
lfemur -18.7709 11.182 -25.3591
ltibia 16.3462
lfoot -2.37222 -3.76286
ltoes 0.676737
938
root 1.26392 17.563 -4.87038 -179.623 -31.0087 -178.152
lowerback -3.05167 1.6898 2.43715
upperback 2.30797 2.17598 -1.76032
thorax 4.25682 1.16989 -3.04052
lowerneck -4.10099 -3.87119 -3.95081
upperneck 15.7922 -6.30305 5.51729
head 5.7299 -3.14845 1.96523
rclavicle 7.06183e-014 -6.36111e-015
rhumerus -30.1537 4.51468 -92.134
rradius 33.7345
rwrist 13.4837
rhand -7.11851 8.7262
rfingers 7.12502
rthumb 18.7568 -20.3895
lclavicle 7.06183e-014 -6.36111e-015
lhumerus -40.0556 3.70302 83.8605
lradius 20.1451
lwrist 26.5579
lhand -11.8783 10.9635
lfingers 7.12502
lthumb 14.1743 40.4599
rfemur 11.335 -1.82976 25.3979
rtibia 27.831
rfoot -3.18844 -1.137
rtoes -4.12013
lfemur -18.5201 11.3623 -25.3293
ltibia 16.497
lfoot -2.47713 -4.00334
ltoes 1.66407
939
root 1.18887 17.5762 -4.95962 -179.527 -30.9972 -178.225
lowerback -3.16321 1.67597 2.41366
upperback 2.24946 2.15988 -1.83412
thorax 4.26016 1.16184 -3.10288
lowerneck -4.12629 -3.86619 -3.94172
upperneck 15.9192 -6.31564 5.53337
head 5.77476 -3.15491 1.96633
rclavicle 4.44284e-014 8.74653e-015
rhumerus -30.3761 4.37094 -92.0461
rradius 33.5263
rwrist 13.5909
rhand -7.21967 8.64684
rfingers 7.12502
rthumb 18.6595 -20.4782
lclavicle 4.44284e-014 8.74653e-015
lhumerus -39.8464 3.61548 83.7162
lradius 20.306
lwrist 26.6958
lhand -11.7652 10.7875
lfingers 7.12502
lthumb 14.2833 40.2763
rfemur 10.6814 -2.10584 25.0386
rtibia 29.4243
rfoot -2.36842 -0.973719
rtoes -1.21456
lfemur -18.1615 11.5241 -25.4201
ltibia 16.5165
lfoot -2.56702 -4.26231
ltoes 2.8938
940
root 1.11129 17.588 -5.05165 -179.391 -31.0868 -178.507
lowerback -3.2954 1.63044 2.20319
upperback 2.23639 2.10988 -1.94512
thorax 4.31402 1.13219 -3.10018
lowerneck -4.17352 -3.85836 -3.92084
upperneck 16.0504 -6.32488 5.55051
head 5.82426 -3.15833 1.96556
rclavicle 3.6477e-014 7.95139e-015
rhumerus -30.5968 4.15453 -91.9234
rradius 33.3293
rwrist 13.7753
rhand -7.21844 8.61492
rfingers 7.12502
rthumb 18.6607 -20.51
lclavicle 3.6477e-014 7.95139e-015
lhumerus -39.5927 3.67217 83.5172
lradius 20.4625
lwrist 26.6786
lhand -11.4733 10.6666
lfingers 7.12502
lthumb 14.5645 40.1353
rfemur 10.0907 -2.55328 24.4573
rtibia 31.0967
rfoot -1.51553 -0.801079
rtoes -0.438023
lfemur -17.6222 11.7605 -25.7206
ltibia 16.3985
lfoot -2.63213 -4.61833
ltoes 4.30363
941
root 1.03669 17.5988 -5.14186 -179.316 -31.1621 -178.804
lowerback -3.36509 1.57813 1.93031
upperback 2.26927 2.05324 -2.01853
thorax 4.37608 1.09686 -3.02503
lowerneck -4.24472 -3.82509 -3.96627
upperneck 16.1796 -6.29532 5.5984
head 5.87829 -3.14359 1.98764
rclavicle -4.70623e-014 9.54166e-015
rhumerus -30.7935 3.94091 -91.7252
rradius 33.1416
rwrist 13.9787
rhand -7.293 8.62664
rfingers 7.12502
rthumb 18.589 -20.5052
lclavicle -4.70623e-014 9.54166e-015
lhumerus -39.2984 3.59698 83.4901
lradius 20.6757
lwrist 26.8971
lhand -11.5558 10.5006
lfingers 7.12502
lthumb 14.485 39.975
rfemur 9.49502 -2.95542 23.862
rtibia 32.8357
rfoot -0.476422 -0.790015
rtoes -0.466451
lfemur -16.9717 12.081 -26.0183
ltibia 16.1602
lfoot -2.63014 -4.9923
ltoes 5.28466
942
root 0.967235 17.6116 -5.22778 -179.257 -31.1584 -179.023
lowerback -3.39315 1.53792 1.68515
upperback 2.28877 2.01141 -2.05494
thorax 4.40155 1.06873 -2.92717
lowerneck -4.21788 -3.78706 -3.96695
upperneck 16.1694 -6.23556 5.55314
head 5.86598 -3.11827 1.9784
rclavicle 6.26172e-015 9.54166e-015
rhumerus -31.0135 3.77273 -91.4911
rradius 33.0073
rwrist 14.1588
rhand -7.28623 8.59308
rfingers 7.12502
rthumb 18.5955 -20.5381
lclavicle 6.26172e-015 9.54166e-015
lhumerus -38.9752 3.27911 83.6357
lradius 20.9581
lwrist 27.3104
lhand -11.7679 10.4428
lfingers 7.12502
lthumb 14.2806 39.9318
rfemur 8.7632 -3.27866 23.3394
rtibia 34.6303
rfoot 0.785629 -0.685625
rtoes 2.0726
lfemur -16.3418 12.2043 -26.192
ltibia 15.8584
lfoot -2.64534 -5.14946
ltoes 5.86076
943
root 0.900842 17.6204 -5.31277 -179.155 -31.1418 -179.28
lowerback -3.47177 1.49073 1.35055
upperback 2.32859 1.96434 -2.08267
thorax 4.47332 1.03536 -2.76907
lowerneck -4.19806 -3.76403 -3.9782
upperneck 16.1204 -6.19049 5.51217
head 5.84401 -3.09937 1.97134
rclavicle 1.07493e-013 -1.51076e-014
rhumerus -31.1152 3.63598 -91.2409
rradius 32.7359
rwrist 14.4113
rhand -7.40025 8.56286
rfingers 7.12502
rthumb 18.4858 -20.5788
lclavicle 1.07493e-013 -1.51076e-014
lhumerus -38.5795 3.03472 83.7371
lradius 21.2566
lwrist 27.5872
lhand -11.8433 10.575
lfingers 7.12502
lthumb 14.208 40.0691
rfemur 7.9723 -3.55016 22.8128
rtibia 36.4631
rfoot 1.7423 -0.767821
rtoes 4.31021
lfemur -15.7592 12.4821 -26.414
ltibia 15.5666
lfoot -2.58975 -5.49911
ltoes 7.26107
944
root 0.835286 17.6274 -5.39666 -178.996 -31.1426 -179.535
lowerback -3.59363 1.4687 1.0551
upperback 2.34781 1.9508 -2.15648
thorax 4.5539 1.02008 -2.67769
lowerneck -4.2925 -3.78478 -3.97923
upperneck 16.1974 -6.23312 5.56924
head 5.8884 -3.11497 1.98384
rclavicle -3.7123e-014 -7.95139e-015
rhumerus -31.2172 3.3008 -91.0265
rradius 32.4872
rwrist 14.6413
rhand -7.49538 8.4214
rfingers 7.12502
rthumb 18.3943 -20.7289
lclavicle -3.7123e-014 -7.95139e-015
lhumerus -38.1362 2.64869 83.8
lradius 21.5354
lwrist 27.8683
lhand -11.8791 10.5503
lfingers 7.12502
lthumb 14.1735 40.0468
rfemur 7.09389 -3.7603 22.3129
rtibia 38.3072
rfoot 2.58743 -1.07831
rtoes 5.23803
lfemur -15.2835 12.6993 -26.6533
ltibia 15.3568
lfoot -2.62427 -5.81105
ltoes 7.71469
945
root 0.771579 17.634 -5.4774 -178.989 -31.1107 -179.692
lowerback -3.56955 1.44454 0.870107
upperback 2.38652 1.92796 -2.21002
thorax 4.57473 1.00282 -2.63132
lowerneck -4.45409 -3.7787 -3.92843
upperneck 16.3784 -6.23634 5.53199
head 5.97072 -3.11375 1.95877
rclavicle 8.28435e-014 -3.18055e-015
rhumerus -31.3269 2.95232 -90.8308
rradius 32.2522
rwrist 14.7664
rhand -7.58661 8.37589
rfingers 7.12502
rthumb 18.3066 -20.7827
lclavicle 8.28435e-014 -3.18055e-015
lhumerus -37.681 2.31721 83.818
lradius 21.8093
lwrist 28.1975
lhand -12.0299 10.5163
lfingers 7.12502
lthumb 14.0282 40.0229
rfemur 6.29149 -3.87622 21.9224
rtibia 40.1258
rfoot 3.54667 -1.43361
rtoes 6.64742
lfemur -14.7771 12.8007 -26.7521
ltibia 15.2781
lfoot -2.79436 -5.99171
ltoes 8.16275
946
root 0.707404 17.6396 -5.55387 -179.122 -31.0879 -179.704
lowerback -3.47607 1.38274 0.831755
upperback 2.42235 1.8462 -2.21724
thorax 4.55343 0.960533 -2.62531
lowerneck -4.47265 -3.71559 -3.89816
upperneck 16.4563 -6.16183 5.52404
head 5.99335 -3.07783 1.95566
rclavicle -2.93704e-014 -3.97569e-015
rhumerus -31.4403 2.65003 -90.6006
rradius 31.9287
rwrist 14.9055
rhand -7.58684 8.61122
rfingers 7.12502
rthumb 18.3063 -20.5474
lclavicle -2.93704e-014 -3.97569e-015
lhumerus -37.2416 2.21708 83.7725
lradius 22.022
lwrist 28.2752
lhand -12.2974 10.5868
lfingers 7.12502
lthumb 13.7704 40.1111
rfemur 5.53382 -3.97188 21.6735
rtibia 41.9135
rfoot 4.52427 -1.85879
rtoes 7.86279
lfemur -14.2502 12.8612 -26.6997
ltibia 15.2706
lfoot -3.07993 -6.10802
ltoes 8.59897
947
root 0.641411 17.6449 -5.62853 -179.169 -31.1136 -179.707
lowerback -3.46594 1.33867 0.864988
upperback 2.41439 1.78587 -2.23214
thorax 4.53774 0.931652 -2.66435
lowerneck -4.37018 -3.6997 -4.00264
upperneck 16.4464 -6.15248 5.61596
head 5.97771 -3.07738 2.00468
rclavicle -1.80397e-014 1.98785e-014
rhumerus -31.6639 2.36865 -90.3457
rradius 31.6985
rwrist 14.8688
rhand -7.55886 8.82993
rfingers 7.12502
rthumb 18.3333 -20.3261
lclavicle -1.80397e-014 1.98785e-014
lhumerus -36.8339 1.92439 83.8257
lradius 22.2713
lwrist 28.3224
lhand -12.4112 10.7366
lfingers 7.12502
lthumb 13.6607 40.2683
rfemur 4.68943 -4.08442 21.4316
rtibia 43.6654
rfoot 5.53476 -2.38261
rtoes 9.63911
lfemur -13.8543 12.8603 -26.6806
ltibia 15.3307
lfoot -3.41936 -6.15221
ltoes 8.42131
948
root 0.578527 17.6492 -5.70421 -179.109 -31.0795 -179.852
lowerback -3.48433 1.32006 0.755401
upperback 2.40961 1.76709 -2.28243
thorax 4.54037 0.918879 -2.65609
lowerneck -4.42322 -3.71521 -4.0635
upperneck 16.5609 -6.17852 5.61403
head 6.02602 -3.09387 2.01033
rclavicle 2.75317e-014 -9.54166e-015
rhumerus -31.7856 1.92466 -90.0754
rradius 31.4038
rwrist 15.022
rhand -7.53507 8.85673
rfingers 7.12502
rthumb 18.3561 -20.2972
lclavicle 2.75317e-014 -9.54166e-015
lhumerus -36.319 1.65748 83.829
lradius 22.4464
lwrist 28.4718
lhand -12.2801 10.7333
lfingers 7.12502
lthumb 13.787 40.2564
rfemur 3.78769 -4.08256 21.0849
rtibia 45.4028
rfoot 6.46174 -2.86425
rtoes 11.0169
lfemur -13.5042 12.9716 -26.8131
ltibia 15.3713
lfoot -3.76989 -6.18584
ltoes 7.68088
949
root 0.521397 17.6537 -5.77707 -179.17 -31.0001 -179.853
lowerback -3.42722 1.29489 0.695934
upperback 2.4139 1.73539 -2.26667
thorax 4.5082 0.900634 -2.60974
lowerneck -4.50568 -3.70667 -4.11035
upperneck 16.7358 -6.17089 5.56772
head 6.095 -3.09629 2.00108
rclavicle -6.04802e-014 5.00937e-014
rhumerus -31.8929 1.55519 -89.794
rradius 31.0916
rwrist 15.1233
rhand -7.5531 8.88876
rfingers 7.12502
rthumb 18.3388 -20.2668
lclavicle -6.04802e-014 5.00937e-014
lhumerus -35.7451 1.47315 83.8092
lradius 22.558
lwrist 28.5897
lhand -12.2882 10.73
lfingers 7.12502
lthumb 13.7793 40.2537
rfemur 2.88427 -3.95728 20.9193
rtibia 47.103
rfoot 7.44893 -3.24
rtoes 11.7456
lfemur -13.096 13.1211 -26.7835
ltibia 15.3698
lfoot -4.10889 -6.20533
ltoes 7.32336
